<svg width="67" height="233" viewBox="0 0 67 233" fill="none" xmlns="http://www.w3.org/2000/svg">
<path d="M65.0001 99.5L64.5068 99.4183L65.0001 99.5ZM1.00011 232L1.22156 232.448L0.653847 231.639L1.00011 232ZM1.08845 0.507864C14.1969 2.86066 32.9248 11.6975 47.0644 27.9056C61.2207 44.1329 70.7689 67.7403 65.4934 99.5817L64.5068 99.4183C69.7314 67.8845 60.2796 44.5753 46.3109 28.563C32.3254 12.5316 13.8034 3.80601 0.911781 1.49214L1.08845 0.507864ZM65.4934 99.5817C54.2736 167.301 18.0807 216.296 1.34638 232.361L0.653847 231.639C17.2528 215.704 53.3266 166.899 64.5068 99.4183L65.4934 99.5817ZM0.778671 231.552L42.2787 211.052L42.7216 211.948L1.22156 232.448L0.778671 231.552Z" fill="#7C7C7C"/>
</svg>
