<svg fill="none" height="217" viewBox="0 0 551 217" width="551" xmlns="http://www.w3.org/2000/svg"><g stroke="#fff" stroke-linecap="round" stroke-miterlimit="10" stroke-width="2"><path d="m78.9195 33.225s-65.6169 50.4771-71.1638 47.4086c-5.54688-3.0684 22.3662-29.924 24.1119-24.3863.8596 2.768-1.8829 29.3751-5.2616 56.3667-.218 1.742-.4377 3.51-.6557 5.251-3.2103 25.194-6.7849 49.434-8.2679 53.488-3.1905 8.706-9.60826 10.927-9.60826 10.927s-6.97449-5.686 4.32346-10.202c11.2979-4.515 16.0531-5.274 16.0531-5.274"/><path d="m26.7689 118.37s-1.0671-.361 11.7318-6.722 18.1995-8.062 18.1995-8.062"/><path d="m67.2947 100.089s9.6387-3.106 13.8235 5.035c.5197 1.017.7245 2.387.6756 3.98-.4201 11.117-13.5509 33.441-16.9422 29.101-3.8836-4.957-10.1128-22.271-.4486-25.775 9.6642-3.503 19.1133 4.231 21.3938 9.723 2.2804 5.492 7.0679 4.23 15.3212-18.327 8.251-22.5306 21.423-56.2887 21.423-56.2887s-19.47 74.7657-15.588 79.7487c3.884 4.957 20.95-40.6003 29.074-69.4424 8.15-28.8405-7.154 46.0594-6.399 58.7674.754 12.709 8.399 7.933 20.048-2.066 11.65-9.998 11.65-9.998 11.65-9.998"/><path d="m179.954 51.2176s-8.819 104.8114 1.051 98.1034c9.869-6.708 18.215-87.9586 22.265-85.5978 4.05 2.3607-1.166 83.7318 5.082 84.1588s32.803-94.8427 32.803-94.8427l.637 55.6017s4.496-29.0748 11.737-27.5468c7.243 1.5015 2.617 16.4184 5.642 18.1815 3.025 1.7633 15.99-20.4653 19.049-19.232 3.058 1.2333.966 1.0992 3.058 1.2333s11.437-14.9856 12.33-12.3219c.865 2.6885-6.303 32.7889 3.833 30.2203 10.136-2.5685 22.379-22.2367 22.814-29.0176.434-6.781-5.893 18.506-4.062 22.2937 1.858 3.7894 20.342-22.8194 21.146-27.4755.83-4.6544 8.542-2.5909 13.29-2.8185 4.721-.2293-.378 30.3759.781 28.881s.408-14.6553 8.615-19.9008c8.207-5.2454 8.207-5.2454 8.207-5.2454" stroke-linejoin="round"/><path d="m303.035 77.4584 23.823-3.7126" stroke-linejoin="round"/><path d="m393.531 61.556s-.364-16.7261 13.253-16.7577c6.623-.0276 12.725 3.502 14.369 10.2034 1.749 7.1602-1.762 13.3982-6.121 18.7573-5.022 6.1677-9.892 12.4516-14.61 18.8515-.262.3556-1.196 1.6522-.666 2.0851.379.3169 1.991-.7766 2.376-.9648 1.762-.9509 3.403-2.0692 5.215-2.9637 2.691-1.317 5.424-2.4716 8.229-3.5152 5.502-2.0411 11.235-3.5354 17.037-4.4401" stroke-linejoin="round"/><path d="m451.446 42.8742c-1.531.2476-2.977.8198-4.159 1.8345-1.855 1.5567-2.804 3.9162-3.407 6.2713-1.166 4.4999-1.211 9.3642-1.533 13.9714-.367 4.8969-.551 9.8321.122 14.6892.293 2.0668.741 4.1967 2.018 5.8477 1.35 1.7621 3.462 2.8284 5.639 3.2871 5.772 1.2211 12.458-.2121 14.759-6.2351.924-2.3877 1.117-4.9818 1.308-7.5495.411-5.5855.822-11.1711 1.232-16.7302.223-3.0709.432-6.3289-.959-9.1043-1.13-2.28-3.256-3.9589-5.613-4.9345-2.849-1.1932-6.315-1.8676-9.407-1.3476z" stroke-linejoin="round"/></g><path d="m447.952 45.4142c-.232-.5014-.826-.7201-1.327-.4886-.501.2316-.72.8258-.489 1.3272zm15.124 37.5173c.232.5014.826.7201 1.327.4885.502-.2315.72-.8257.489-1.3271zm-16.94-36.6787 16.94 36.6787 1.816-.8386-16.94-36.6787z" fill="#fff"/><path d="m480.985 44.5812s3.521-16.3441 16.776-13.2337c6.472 1.5052 11.559 6.3528 11.622 13.2454.06 7.3711-4.825 12.6433-10.306 16.8401-6.319 4.8345-12.516 9.8364-18.588 14.9528-.336.271-1.548 1.337-1.132 1.8956.294.3912 2.119-.2897 2.525-.3967 1.921-.5152 3.803-1.2457 5.745-1.6797 2.913-.6378 5.87-1.1398 8.818-1.5093 5.841-.6895 11.728-.8441 17.602-.3878" stroke="#fff" stroke-linecap="round" stroke-linejoin="round" stroke-miterlimit="10" stroke-width="2"/><path d="m533.424 33.7663c-1.532.2476-2.978.8198-4.159 1.8345-1.855 1.5567-2.804 3.9162-3.407 6.2713-1.166 4.4999-1.212 9.3642-1.534 13.9714-.367 4.8968-.55 9.8321.122 14.6892.293 2.0668.742 4.1966 2.019 5.8477 1.349 1.7621 3.461 2.8284 5.639 3.2871 5.771 1.2211 12.458-.2121 14.758-6.2351.925-2.3877 1.117-4.9818 1.309-7.5495.411-5.5855.822-11.1711 1.231-16.7302.224-3.0709.433-6.3289-.958-9.1043-1.13-2.28-3.256-3.9589-5.614-4.9345-2.875-1.1949-6.341-1.8693-9.406-1.3476z" stroke="#fff" stroke-linecap="round" stroke-linejoin="round" stroke-miterlimit="10" stroke-width="2"/><path d="m530.18 35.8542c-.231-.5014-.826-.7202-1.327-.4886-.501.2315-.72.8257-.489 1.3271zm15.124 37.5172c.232.5014.826.7202 1.327.4886.502-.2316.72-.8258.489-1.3272zm-16.94-36.6787 16.94 36.6787 1.816-.8386-16.94-36.6786z" fill="#fff"/></svg>